<svg version="1.1" id="Layer_1" xmlns="http://www.w3.org/2000/svg" xmlns:xlink="http://www.w3.org/1999/xlink" x="0px" y="0px" width="100%" viewBox="0 0 3164 3164" enable-background="new 0 0 3164 3164" xml:space="preserve">
<path fill="#01355F" opacity="1.000000" stroke="none" d="
M1514.000000,2.000000 
	C1560.041748,2.000000 1606.083618,2.000000 1653.192017,2.793453 
	C1657.340088,4.336693 1660.390137,5.553661 1663.507812,5.762107 
	C1687.716431,7.380753 1712.017334,8.029098 1736.135620,10.487862 
	C1765.534912,13.485003 1794.926514,17.104616 1824.063477,21.992222 
	C1864.054565,28.700541 1904.019531,35.874306 1943.603394,44.623631 
	C1997.914551,56.628109 2051.198242,72.509422 2103.789795,90.745354 
	C2163.344727,111.395683 2221.305420,135.829193 2277.992676,163.265854 
	C2301.361572,174.576431 2324.406006,186.677078 2346.932617,199.580002 
	C2379.572266,218.275513 2412.072266,237.296555 2443.797852,257.488739 
	C2496.947998,291.317017 2547.498291,328.858307 2595.694336,369.426208 
	C2621.393555,391.057953 2646.661621,413.299713 2670.899170,436.543579 
	C2698.049072,462.580444 2724.038574,489.846252 2750.092041,517.000305 
	C2764.138916,531.640503 2777.622070,546.861877 2790.730957,562.352966 
	C2819.557617,596.418396 2847.070312,631.529663 2873.011963,667.862244 
	C2900.903564,706.925537 2927.060547,747.123657 2951.159912,788.615662 
	C2974.076172,828.070496 2996.225342,867.967041 3014.928711,909.657349 
	C3025.285645,932.743591 3036.037842,955.665894 3045.818604,978.994629 
	C3067.597656,1030.941528 3086.865234,1083.862427 3101.990234,1138.113647 
	C3113.690674,1180.081543 3124.261963,1222.418213 3133.615967,1264.969116 
	C3140.959473,1298.375122 3146.315186,1332.263916 3151.348877,1366.117432 
	C3155.254883,1392.387939 3157.404541,1418.924194 3160.118896,1445.364624 
	C3161.136230,1455.274292 3161.383301,1465.262817 3162.383545,1475.174805 
	C3162.556396,1476.887451 3164.743408,1478.396729 3166.000000,1480.000000 
	C3166.000000,1548.708496 3166.000000,1617.416870 3165.209961,1687.192383 
	C3163.673828,1690.341797 3162.470703,1692.379272 3162.261963,1694.514038 
	C3161.422607,1703.106079 3161.142578,1711.755737 3160.199707,1720.333984 
	C3157.006348,1749.385742 3153.802002,1778.438599 3150.264404,1807.449829 
	C3143.854980,1860.015991 3133.018311,1911.767822 3120.495850,1963.158691 
	C3107.085938,2018.190430 3090.607910,2072.322754 3071.131836,2125.526855 
	C3054.180664,2171.834473 3035.443848,2217.408936 3013.908691,2261.773682 
	C3001.982910,2286.341309 2989.283447,2310.538574 2976.672119,2334.767334 
	C2957.744629,2371.130615 2936.443359,2406.112549 2914.197998,2440.517822 
	C2890.319092,2477.449951 2864.850586,2513.252441 2838.040771,2548.133057 
	C2803.319580,2593.306641 2766.056885,2636.291504 2726.889893,2677.597412 
	C2708.572510,2696.915039 2688.807373,2714.855957 2669.797363,2733.521484 
	C2642.934082,2759.898193 2614.321045,2784.270752 2585.265869,2808.171631 
	C2539.954590,2845.445557 2492.724609,2880.056396 2443.410645,2911.847168 
	C2387.652344,2947.792480 2330.380371,2981.040527 2270.148682,3008.973389 
	C2242.967285,3021.578857 2215.779297,3034.226807 2188.159668,3045.819824 
	C2119.585205,3074.602539 2049.126465,3097.851562 1977.057739,3116.268311 
	C1926.419067,3129.208496 1875.305908,3139.790771 1823.627441,3147.508545 
	C1797.343750,3151.433838 1770.967041,3154.879639 1744.538574,3157.645996 
	C1723.399658,3159.859131 1702.118530,3160.709717 1680.901855,3162.186768 
	C1678.038818,3162.386230 1674.576904,3161.614258 1674.000000,3166.000000 
	C1615.291504,3166.000000 1556.583130,3166.000000 1496.835205,3165.197510 
	C1492.723022,3163.651123 1489.682495,3162.467285 1486.571777,3162.239014 
	C1472.982422,3161.242920 1459.307129,3161.105957 1445.783203,3159.586914 
	C1415.099854,3156.140625 1384.463501,3152.245361 1353.851685,3148.200928 
	C1308.324951,3142.185791 1263.366211,3133.076660 1218.702881,3122.500732 
	C1168.470825,3110.606201 1119.036133,3096.005859 1070.192749,3079.261963 
	C1016.586975,3060.884766 964.078735,3039.759277 913.110962,3015.139160 
	C874.161438,2996.324219 835.878784,2976.000244 798.116638,2954.886230 
	C741.086853,2922.998535 687.002014,2886.397461 634.900146,2847.025879 
	C587.634888,2811.309082 542.227051,2773.287109 499.442322,2732.221680 
	C457.865906,2692.315918 417.666962,2651.091553 380.458649,2607.052002 
	C336.809357,2555.389160 296.454895,2501.271973 259.494202,2444.590820 
	C233.647095,2404.952637 209.688354,2364.226807 187.465530,2322.493164 
	C162.095215,2274.848389 139.386902,2225.905518 119.177856,2175.856445 
	C93.603760,2112.520752 72.147766,2047.787109 54.965977,1981.657715 
	C44.003952,1939.467041 34.335365,1896.975708 27.668219,1853.894409 
	C22.438101,1820.098877 17.652973,1786.203369 13.933040,1752.214111 
	C10.430962,1720.215820 8.477953,1688.044189 6.079468,1655.931274 
	C5.510018,1648.306885 5.928416,1640.611572 5.799600,1632.950317 
	C5.750591,1630.035645 6.279004,1626.663940 2.000000,1626.000000 
	C2.000000,1599.291504 2.000000,1572.583130 2.781214,1544.763428 
	C4.318831,1540.917847 5.738075,1538.180908 5.728225,1535.449219 
	C5.638212,1510.483398 7.091932,1485.617310 9.766693,1460.803101 
	C13.182776,1429.111450 15.342219,1397.235596 20.095076,1365.749023 
	C26.342123,1324.363770 33.632801,1283.080933 42.186123,1242.111450 
	C56.832172,1171.958130 77.489456,1103.434937 102.407303,1036.255127 
	C124.769920,975.964355 150.886551,917.326538 180.593826,860.241333 
	C202.286423,818.557129 225.448059,777.766785 250.723892,738.184570 
	C281.388458,690.163635 314.349304,643.766113 349.991089,599.283020 
	C383.514252,557.444092 418.942780,517.289612 456.430756,478.981171 
	C471.558929,463.521912 487.162048,448.497559 503.056854,433.825470 
	C525.299561,413.293945 547.517700,392.684784 570.646973,373.176514 
	C606.780151,342.700287 644.410217,314.131958 683.169983,286.997406 
	C735.624695,250.275406 790.054993,216.803040 846.675049,187.045654 
	C880.845825,169.086777 915.872620,152.677963 951.007324,136.652664 
	C991.605835,118.135315 1033.187866,101.863823 1075.632324,88.069244 
	C1110.755737,76.654037 1146.113525,65.873863 1181.679321,55.927261 
	C1226.864868,43.290344 1272.760620,33.545361 1319.072754,25.980806 
	C1343.330200,22.018625 1367.682739,18.535215 1392.082031,15.573651 
	C1417.125122,12.533941 1442.257446,10.166842 1467.390137,7.951499 
	C1480.951660,6.756114 1494.595825,6.502316 1508.201782,5.803638 
	C1510.849731,5.667662 1513.777710,5.872398 1514.000000,2.000000 
M1274.704102,1171.000488 
	C1274.704224,1128.003662 1274.708618,1085.006836 1274.702515,1042.010010 
	C1274.699829,1023.159668 1274.690063,1023.101440 1256.106445,1023.096252 
	C1171.443481,1023.072571 1086.780640,1023.083984 1002.117737,1023.083740 
	C984.940735,1023.083679 984.916687,1023.085693 984.915771,1040.084717 
	C984.908508,1176.411987 984.910950,1312.739136 984.910828,1449.066406 
	C984.910645,1662.056885 984.907288,1875.047363 984.930542,2088.037842 
	C984.931152,2093.363525 984.994568,2098.708984 985.450439,2104.009033 
	C985.876526,2108.963135 988.597290,2111.951172 993.955383,2111.843262 
	C995.954041,2111.802979 997.954651,2111.878174 999.954407,2111.878174 
	C1083.617310,2111.879639 1167.280273,2111.886719 1250.943237,2111.854736 
	C1255.604736,2111.853027 1260.285767,2111.732666 1264.923218,2111.299316 
	C1271.615479,2110.673584 1273.694824,2108.735840 1274.358398,2102.024902 
	C1274.848511,2097.067139 1274.692871,2092.038086 1274.693237,2087.040771 
	C1274.706787,1944.713745 1274.703491,1802.386719 1274.704224,1660.059692 
	C1274.704224,1657.393188 1274.580566,1654.717651 1274.755127,1652.062134 
	C1275.207397,1645.181641 1277.036255,1643.328247 1283.829102,1642.767822 
	C1285.816772,1642.603882 1287.826782,1642.696289 1289.826538,1642.696289 
	C1463.152100,1642.693848 1636.477783,1642.689819 1809.803345,1642.700073 
	C1826.301514,1642.701050 1827.084351,1643.545654 1827.084351,1660.407959 
	C1827.083740,1802.068237 1827.082153,1943.728638 1827.087891,2085.388916 
	C1827.088013,2090.054932 1826.982300,2094.731445 1827.244873,2099.385010 
	C1827.737549,2108.117920 1830.104614,2110.657227 1838.591187,2111.494629 
	C1842.560181,2111.885986 1846.579834,2111.862305 1850.576416,2111.863281 
	C1932.239380,2111.882324 2013.902466,2111.879150 2095.565430,2111.872314 
	C2098.564453,2111.872070 2101.573242,2111.925781 2104.560547,2111.715088 
	C2112.034912,2111.187500 2113.750488,2109.628906 2114.477783,2102.049805 
	C2114.890381,2097.750977 2114.759033,2093.393311 2114.759033,2089.062256 
	C2114.769531,1739.744507 2114.769043,1390.426636 2114.766846,1041.108887 
	C2114.766846,1038.109131 2114.870605,1035.101562 2114.695557,1032.111206 
	C2114.282227,1025.031494 2112.760010,1023.567261 2105.613281,1023.127014 
	C2103.952393,1023.024658 2102.281006,1023.084778 2100.614502,1023.084778 
	C2015.284912,1023.084595 1929.955444,1023.072632 1844.625854,1023.098755 
	C1827.873657,1023.103882 1827.088135,1023.929138 1827.087280,1040.476562 
	C1827.080688,1164.471069 1827.083740,1288.465454 1827.080566,1412.459961 
	C1827.080444,1415.459473 1827.225342,1418.473877 1826.984131,1421.455566 
	C1826.493530,1427.524780 1824.391235,1429.753174 1818.469727,1430.521851 
	C1816.170044,1430.820435 1813.811279,1430.705322 1811.479370,1430.705444 
	C1637.153809,1430.714233 1462.828247,1430.721924 1288.502686,1430.703979 
	C1275.972412,1430.702637 1274.802979,1429.451660 1274.703003,1416.989746 
	C1274.689575,1415.323242 1274.704346,1413.656616 1274.704346,1411.989990 
	C1274.703857,1332.326904 1274.703125,1252.663696 1274.704102,1171.000488 
M2785.383301,1818.481079 
	C2783.215088,1820.241455 2781.226807,1822.047607 2783.655762,1825.010498 
	C2797.762451,1821.944824 2808.758545,1806.400269 2810.146240,1789.269165 
	C2811.253906,1775.597046 2802.610840,1755.338135 2789.568359,1753.334595 
	C2792.304199,1758.671143 2794.673096,1763.145752 2796.912109,1767.684570 
	C2806.331055,1786.777588 2802.797852,1803.828491 2785.383301,1818.481079 
M2237.580566,2052.185547 
	C2231.537842,2056.120850 2230.730957,2058.198486 2234.037598,2062.701172 
	C2235.577393,2064.797607 2237.563965,2066.673828 2239.659424,2068.229980 
	C2243.065674,2070.759521 2246.518311,2070.263672 2249.446045,2067.258789 
	C2252.390137,2064.236816 2252.609619,2060.844238 2250.123535,2057.421143 
	C2247.431396,2053.713867 2243.920654,2051.550781 2237.580566,2052.185547 
z" data-index="0" style="opacity: 1;"></path>

<path fill="#000000" opacity="1.000000" stroke="none" d="
M2.000000,1626.937256 
	C6.279004,1626.663940 5.750591,1630.035645 5.799600,1632.950317 
	C5.928416,1640.611572 5.510018,1648.306885 6.079468,1655.931274 
	C8.477953,1688.044189 10.430962,1720.215820 13.933040,1752.214111 
	C17.652973,1786.203369 22.438101,1820.098877 27.668219,1853.894409 
	C34.335365,1896.975708 44.003952,1939.467041 54.965977,1981.657715 
	C72.147766,2047.787109 93.603760,2112.520752 119.177856,2175.856445 
	C139.386902,2225.905518 162.095215,2274.848389 187.465530,2322.493164 
	C209.688354,2364.226807 233.647095,2404.952637 259.494202,2444.590820 
	C296.454895,2501.271973 336.809357,2555.389160 380.458649,2607.052002 
	C417.666962,2651.091553 457.865906,2692.315918 499.442322,2732.221680 
	C542.227051,2773.287109 587.634888,2811.309082 634.900146,2847.025879 
	C687.002014,2886.397461 741.086853,2922.998535 798.116638,2954.886230 
	C835.878784,2976.000244 874.161438,2996.324219 913.110962,3015.139160 
	C964.078735,3039.759277 1016.586975,3060.884766 1070.192749,3079.261963 
	C1119.036133,3096.005859 1168.470825,3110.606201 1218.702881,3122.500732 
	C1263.366211,3133.076660 1308.324951,3142.185791 1353.851685,3148.200928 
	C1384.463501,3152.245361 1415.099854,3156.140625 1445.783203,3159.586914 
	C1459.307129,3161.105957 1472.982422,3161.242920 1486.571777,3162.239014 
	C1489.682495,3162.467285 1492.723022,3163.651123 1495.897949,3165.197510 
	C998.143555,3166.000000 500.287140,3166.000000 2.000000,3166.000000 
	C2.000000,2653.291504 2.000000,2140.583008 2.000000,1626.937256 
z" data-index="2" style="opacity: 1; visibility: hidden;"></path>

<path fill="#000000" opacity="1.000000" stroke="none" d="
M1674.937256,3166.000000 
	C1674.576904,3161.614258 1678.038818,3162.386230 1680.901855,3162.186768 
	C1702.118530,3160.709717 1723.399658,3159.859131 1744.538574,3157.645996 
	C1770.967041,3154.879639 1797.343750,3151.433838 1823.627441,3147.508545 
	C1875.305908,3139.790771 1926.419067,3129.208496 1977.057739,3116.268311 
	C2049.126465,3097.851562 2119.585205,3074.602539 2188.159668,3045.819824 
	C2215.779297,3034.226807 2242.967285,3021.578857 2270.148682,3008.973389 
	C2330.380371,2981.040527 2387.652344,2947.792480 2443.410645,2911.847168 
	C2492.724609,2880.056396 2539.954590,2845.445557 2585.265869,2808.171631 
	C2614.321045,2784.270752 2642.934082,2759.898193 2669.797363,2733.521484 
	C2688.807373,2714.855957 2708.572510,2696.915039 2726.889893,2677.597412 
	C2766.056885,2636.291504 2803.319580,2593.306641 2838.040771,2548.133057 
	C2864.850586,2513.252441 2890.319092,2477.449951 2914.197998,2440.517822 
	C2936.443359,2406.112549 2957.744629,2371.130615 2976.672119,2334.767334 
	C2989.283447,2310.538574 3001.982910,2286.341309 3013.908691,2261.773682 
	C3035.443848,2217.408936 3054.180664,2171.834473 3071.131836,2125.526855 
	C3090.607910,2072.322754 3107.085938,2018.190430 3120.495850,1963.158691 
	C3133.018311,1911.767822 3143.854980,1860.015991 3150.264404,1807.449829 
	C3153.802002,1778.438599 3157.006348,1749.385742 3160.199707,1720.333984 
	C3161.142578,1711.755737 3161.422607,1703.106079 3162.261963,1694.514038 
	C3162.470703,1692.379272 3163.673828,1690.341797 3165.209961,1688.129761 
	C3166.000000,2180.521484 3166.000000,2673.043213 3166.000000,3166.000000 
	C2669.291748,3166.000000 2172.583252,3166.000000 1674.937256,3166.000000 
z" data-index="4" style="opacity: 1; visibility: hidden;"></path>
<path fill="#FCFDFD" opacity="1.000000" stroke="none" d="
M1274.703247,1172.000488 
	C1274.703125,1252.663696 1274.703857,1332.326904 1274.704346,1411.989990 
	C1274.704346,1413.656616 1274.689575,1415.323242 1274.703003,1416.989746 
	C1274.802979,1429.451660 1275.972412,1430.702637 1288.502686,1430.703979 
	C1462.828247,1430.721924 1637.153809,1430.714233 1811.479370,1430.705444 
	C1813.811279,1430.705322 1816.170044,1430.820435 1818.469727,1430.521851 
	C1824.391235,1429.753174 1826.493530,1427.524780 1826.984131,1421.455566 
	C1827.225342,1418.473877 1827.080444,1415.459473 1827.080566,1412.459961 
	C1827.083740,1288.465454 1827.080688,1164.471069 1827.087280,1040.476562 
	C1827.088135,1023.929138 1827.873657,1023.103882 1844.625854,1023.098755 
	C1929.955444,1023.072632 2015.284912,1023.084595 2100.614502,1023.084778 
	C2102.281006,1023.084778 2103.952393,1023.024658 2105.613281,1023.127014 
	C2112.760010,1023.567261 2114.282227,1025.031494 2114.695557,1032.111206 
	C2114.870605,1035.101562 2114.766846,1038.109131 2114.766846,1041.108887 
	C2114.769043,1390.426636 2114.769531,1739.744507 2114.759033,2089.062256 
	C2114.759033,2093.393311 2114.890381,2097.750977 2114.477783,2102.049805 
	C2113.750488,2109.628906 2112.034912,2111.187500 2104.560547,2111.715088 
	C2101.573242,2111.925781 2098.564453,2111.872070 2095.565430,2111.872314 
	C2013.902466,2111.879150 1932.239380,2111.882324 1850.576416,2111.863281 
	C1846.579834,2111.862305 1842.560181,2111.885986 1838.591187,2111.494629 
	C1830.104614,2110.657227 1827.737549,2108.117920 1827.244873,2099.385010 
	C1826.982300,2094.731445 1827.088013,2090.054932 1827.087891,2085.388916 
	C1827.082153,1943.728638 1827.083740,1802.068237 1827.084351,1660.407959 
	C1827.084351,1643.545654 1826.301514,1642.701050 1809.803345,1642.700073 
	C1636.477783,1642.689819 1463.152100,1642.693848 1289.826538,1642.696289 
	C1287.826782,1642.696289 1285.816772,1642.603882 1283.829102,1642.767822 
	C1277.036255,1643.328247 1275.207397,1645.181641 1274.755127,1652.062134 
	C1274.580566,1654.717651 1274.704224,1657.393188 1274.704224,1660.059692 
	C1274.703491,1802.386719 1274.706787,1944.713745 1274.693237,2087.040771 
	C1274.692871,2092.038086 1274.848511,2097.067139 1274.358398,2102.024902 
	C1273.694824,2108.735840 1271.615479,2110.673584 1264.923218,2111.299316 
	C1260.285767,2111.732666 1255.604736,2111.853027 1250.943237,2111.854736 
	C1167.280273,2111.886719 1083.617310,2111.879639 999.954407,2111.878174 
	C997.954651,2111.878174 995.954041,2111.802979 993.955383,2111.843262 
	C988.597290,2111.951172 985.876526,2108.963135 985.450439,2104.009033 
	C984.994568,2098.708984 984.931152,2093.363525 984.930542,2088.037842 
	C984.907288,1875.047363 984.910645,1662.056885 984.910828,1449.066406 
	C984.910950,1312.739136 984.908508,1176.411987 984.915771,1040.084717 
	C984.916687,1023.085693 984.940735,1023.083679 1002.117737,1023.083740 
	C1086.780640,1023.083984 1171.443481,1023.072571 1256.106445,1023.096252 
	C1274.690063,1023.101440 1274.699829,1023.159668 1274.702515,1042.010010 
	C1274.708618,1085.006836 1274.704224,1128.003662 1274.703247,1172.000488 
z" data-index="5"></path>
<path fill="#245175" opacity="1.000000" stroke="none" d="
M2785.986328,1818.103760 
	C2802.797852,1803.828491 2806.331055,1786.777588 2796.912109,1767.684570 
	C2794.673096,1763.145752 2792.304199,1758.671143 2789.568359,1753.334595 
	C2802.610840,1755.338135 2811.253906,1775.597046 2810.146240,1789.269165 
	C2808.758545,1806.400269 2797.762451,1821.944824 2783.655762,1825.010498 
	C2781.226807,1822.047607 2783.215088,1820.241455 2785.986328,1818.103760 
z" data-index="6"></path>
<path fill="#18496F" opacity="1.000000" stroke="none" d="
M2238.359131,2052.126465 
	C2243.920654,2051.550781 2247.431396,2053.713867 2250.123535,2057.421143 
	C2252.609619,2060.844238 2252.390137,2064.236816 2249.446045,2067.258789 
	C2246.518311,2070.263672 2243.065674,2070.759521 2239.659424,2068.229980 
	C2237.563965,2066.673828 2235.577393,2064.797607 2234.037598,2062.701172 
	C2230.730957,2058.198486 2231.537842,2056.120850 2238.359131,2052.126465 
z" data-index="7"></path>
</svg>